<?xml version="1.0" standalone="no"?>
<!DOCTYPE svg PUBLIC "-//W3C//DTD SVG 1.0//EN" "http://www.w3.org/TR/2001/REC-SVG-20010904/DTD/svg10.dtd">
<svg xmlns="http://www.w3.org/2000/svg" xmlns:xlink="http://www.w3.org/1999/xlink" id="body_1" width="293" height="293">

<defs>
    <linearGradient transform="matrix(1 0 0 1 0 0)"  id="1" x1="0" y1="0" x2="698" y2="0">
        <stop stop-color="#808080" offset="0%"/>
        <stop stop-color="#808080" offset="100%"/>
    </linearGradient>
</defs>

<g transform="matrix(0.4197708 0 0 0.4197708 0 0)">
	<g>
        <path d="M698 349C 698 445.37372 663.92676 527.6338 595.7803 595.7803C 527.6338 663.92676 445.37372 698 349 698C 252.62631 698 170.36624 663.92676 102.21974 595.7803C 34.07325 527.6338 0 445.37372 0 349C 0 252.62631 34.07325 170.36624 102.21974 102.21974C 170.36624 34.07325 252.62631 0 349 0C 445.37372 0 527.6338 34.07325 595.7803 102.21974C 663.92676 170.36624 698 252.62631 698 349C 698 353.06122 697.92914 357.12122 697.7874 361.17993" stroke="none" fill="url(#1)" />
	</g>
    <path d="M691.32 346.77C 691.32 441.1113 657.96533 521.6366 591.256 588.34595C 524.54663 655.05536 444.0213 688.41003 349.68 688.41003C 255.33871 688.41003 174.81339 655.05536 108.10402 588.34595C 41.39466 521.6366 8.039978 441.1113 8.039978 346.77C 8.039978 252.42871 41.39466 171.90338 108.10402 105.194016C 174.81339 38.484657 255.33871 5.1299744 349.68 5.1299744C 444.0213 5.1299744 524.54663 38.484657 591.256 105.194016C 657.96533 171.90338 691.32 252.42871 691.32 346.77C 691.32 350.74554 691.2507 354.7199 691.11194 358.69305" stroke="none" fill="#F5F5F5" fill-rule="nonzero" />
    <path transform="matrix(1 0 0 1 -251 -101)"  d="M601 790.76C 667.7565 790.8685 733.06805 771.32275 788.79 734.56C 776.19995 665.76 728.29 661.83997 728.29 661.83997L728.29 661.83997L464.09 661.83997C 464.09 661.83997 418.88 665.55 404.76 728.83997C 462.2092 769.2505 530.7618 790.881 601 790.76z" stroke="none" fill="#062C43" fill-rule="nonzero" />
    <path d="M511.27 339.57C 511.27002 385.1059 495.17065 423.9732 462.9719 456.1719C 430.7732 488.37067 391.90588 504.47003 346.37 504.47C 300.8341 504.47003 261.9668 488.37067 229.7681 456.1719C 197.56937 423.9732 181.47 385.1059 181.47 339.57C 181.47 294.03412 197.56937 255.16682 229.7681 222.96811C 261.9668 190.76938 300.8341 174.67001 346.37 174.67001C 391.90588 174.67001 430.7732 190.76938 462.9719 222.96811C 495.17065 255.16682 511.27002 294.03412 511.27 339.57C 511.27002 341.4889 511.23654 343.4072 511.16956 345.32492" stroke="none" fill="#333333" fill-rule="nonzero" />
    <path d="M293.15 476.92L398.81 476.92L398.81 476.92L398.81 476.92L398.81 476.92L398.81 561.45C 398.81003 590.6194 375.1694 614.269 346 614.28C 331.98862 614.28 318.5511 608.714 308.64355 598.80646C 298.736 588.8989 293.16998 575.46136 293.16998 561.45L293.16998 561.45L293.16998 476.92L293.16998 476.92L293.16998 476.92L293.16998 476.92L293.15 476.92z" stroke="none" fill="#000000" fill-rule="nonzero" fill-opacity="0.09803922" />
    <path d="M296.5 473L395.5 473C 396.38846 472.99997 397.24057 473.3529 397.8688 473.98117C 398.49707 474.6094 398.85 475.46152 398.85 476.35L398.85 476.35L398.85 557.53C 398.85263 571.5466 393.28506 584.9897 383.3729 594.89996C 373.46072 604.81024 360.01657 610.3753 346 610.37C 331.98862 610.37 318.5511 604.80396 308.64355 594.8964C 298.736 584.9889 293.16998 571.55133 293.16998 557.54L293.16998 557.54L293.16998 476.35C 293.16995 474.5076 294.65765 473.01096 296.5 473z" stroke="none" fill="#FDB797" fill-rule="nonzero" />
    <path transform="matrix(1 0 0 1 -251 -101)"  d="M544.34 617.82C 578.3933 630.5425 615.8775 630.6454 650 618.11L650 618.11L650 605.11L544.34 605.11L544.34 617.82z" stroke="none" fill="#000000" fill-rule="nonzero" fill-opacity="0.09803922" />
    <path d="M497.82 372.44C 497.82 414.26178 483.03378 449.9589 453.4613 479.5313C 423.8889 509.1038 388.19177 523.89 346.37 523.89C 304.54825 523.89 268.85114 509.1038 239.27869 479.5313C 209.70624 449.9589 194.92001 414.26178 194.92 372.44C 194.92001 330.61826 209.70624 294.92114 239.27869 265.3487C 268.85114 235.77625 304.54825 220.99002 346.37 220.99C 388.19177 220.99002 423.8889 235.77625 453.4613 265.3487C 483.03378 294.92114 497.82 330.61826 497.82 372.44C 497.82 374.2024 497.78925 375.96423 497.72772 377.72552" stroke="none" fill="#FDB797" fill-rule="nonzero" />
    <path transform="matrix(1 0 0 1 -251 -101)"  d="M489.49 335.68C 489.49 335.68 553.32 465.24 733.37 390L733.37 390L691.45 324.27L617.14 297.59998L489.49 335.68z" stroke="none" fill="#000000" fill-rule="nonzero" fill-opacity="0.09803922" />
    <path transform="matrix(1 0 0 1 -251 -101)"  d="M489.49 333.78C 489.49 333.78 553.32 463.34 733.37 388.08L733.37 388.08L691.45 322.34998L617.14 295.67996L489.49 333.78z" stroke="none" fill="#333333" fill-rule="nonzero" />
    <path transform="matrix(1 0 0 1 -251 -101)"  d="M488.93 325C 493.23383 311.6772 500.67212 299.58185 510.62 289.73C 540.41 260.28 589.25 254.07 614.3 220.49002C 620.3 229.81003 615.66 244.14001 605.3 248.14001C 629.3 247.98001 657.11 245.88002 670.68 226.14001C 677.5253 242.07571 674.5782 260.52905 663.11 273.54C 684.38 274.54 707.11 288.94 708.45 310.19C 709.37 324.35 700.45 337.75 688.86 345.87C 677.26996 353.99 663.14996 357.72 649.3 360.77C 608.86 369.7 462.54 407.07 488.93 325z" stroke="none" fill="#333333" fill-rule="nonzero" />
    <path d="M180.77 372.3C 180.77 357.70862 187.07831 345.87997 194.86 345.87997C 202.6417 345.87997 208.95 357.70862 208.95 372.3C 208.95 386.89136 202.6417 398.72 194.86 398.72C 187.07831 398.72 180.77 386.89136 180.77 372.3" stroke="none" fill="#FDB797" fill-rule="nonzero" />
    <path d="M483.71 372.3C 483.71 357.70862 490.0183 345.87997 497.8 345.87997C 505.58167 345.87997 511.88998 357.70862 511.88998 372.3C 511.88998 386.89136 505.58167 398.72 497.8 398.72C 490.0183 398.72 483.71 386.89136 483.71 372.3" stroke="none" fill="#FDB797" fill-rule="nonzero" />
</g>
</svg>